<?xml version="1.0" encoding="UTF-8"?>
<!DOCTYPE svg PUBLIC "-//W3C//DTD SVG 1.1//EN" "http://www.w3.org/Graphics/SVG/1.1/DTD/svg11.dtd">
<!-- Creator: CorelDRAW 2018 (64-Bit) -->
<svg xmlns="http://www.w3.org/2000/svg" xml:space="preserve" width="71.024mm" height="66.3338mm" version="1.1" style="shape-rendering:geometricPrecision; text-rendering:geometricPrecision; image-rendering:optimizeQuality; fill-rule:evenodd; clip-rule:evenodd"
viewBox="0 0 540.52 504.83"
 xmlns:xlink="http://www.w3.org/1999/xlink">
 <defs>
  <style type="text/css">
   <![CDATA[
    .fil0 {fill:#000}
   ]]>
  </style>
 </defs>
 <g id="Слой_x0020_1">
  <metadata id="CorelCorpID_0Corel-Layer"/>
  <g id="_2149121297504">
   <path class="fil0" d="M319.55 100.29c10.46,-14.28 42.09,-2.26 53.43,0.97 6.61,1.88 9.53,2.76 15.91,4.48 5.45,1.47 10.76,2.09 13.95,6.45 -4.2,5.74 -15.79,6.8 -23.8,6.8 -7.75,0 -8.93,-1.88 -14.84,-3.86 -8.5,-2.84 -40.71,-9.46 -44.65,-14.84zm-35.7 -1.7c-17.02,0 -76.49,1.72 -76.49,-18.7 0,-18.75 110.18,-30.08 129.18,-1.7 -2.32,9.95 -6.33,10.52 -20.57,15.12 -9.18,2.96 -20.26,5.28 -32.12,5.28zm-258.36 -15.3c3.35,-4.57 4.67,-3.7 11.51,-5.49 17.08,-4.46 24.75,-10.81 47.27,-7.39l70.41 4.38 -63.64 19.67c-14.99,4.38 -12.66,3.78 -32.17,-2.06 -9.52,-2.85 -23.68,-8.31 -33.37,-9.12zm176.77 -10.2l-6.8 0c3.18,-2.02 -3.8,-1.91 3.4,-1.4 3.65,0.26 1.49,0.15 3.4,1.4zm-23.8 0c2,-2.74 0.41,-2.15 3.94,-2.98 7.43,-1.73 5.69,0.92 6.25,1.28 -4,0.93 -5.02,1.57 -10.2,1.7zm161.48 -8.5l6.8 0c4.7,0 4.09,1.31 5.1,5.1l-17 0c1.01,-3.79 0.4,-5.1 5.1,-5.1zm-178.48 5.1c4,-0.93 5.02,-1.58 10.2,-1.7 -2,2.74 -0.41,2.15 -3.94,2.98 -7.43,1.73 -5.69,-0.92 -6.26,-1.28zm-17 -1.7l8.5 0 0 1.7 -8.5 0 0 -1.7zm-17 1.7c3.62,-4.94 -0.24,-3.21 8.5,-3.4 -3.67,3.19 -2.47,2.77 -8.5,3.4zm-15.3 -1.7c3.62,-4.94 -0.24,-3.2 8.5,-3.4 -3.63,4.96 0.25,3.19 -8.5,3.4zm-15.3 -3.4c0.95,0 2.77,-0.03 3.28,0.11 3.08,0.89 1.82,0.47 3.51,1.59l-6.8 -1.7zm-17 1.7c3.5,-3.05 2.56,-2.9 8.5,-3.4 -3.63,4.96 0.25,3.19 -8.5,3.4zm-13.6 -3.4c1.84,-1.84 9.28,2.55 2.8,0.88 -0.05,-0.01 -0.59,-0.16 -0.68,-0.18 -0.2,-0.06 -5.07,2.26 -2.12,-0.69zm33.99 -3.4c0.34,-0.24 0.91,-0.95 1.08,-0.62 0.17,0.33 0.84,-0.5 1.09,-0.61 0.33,-0.16 1.84,-0.9 2.31,-1.09 2.16,-0.9 2.56,-0.96 5.03,-1.77l32.63 -9.86c13.62,-3.78 29.21,-8.75 43.06,-13.03 14.71,-4.55 27.67,-8.73 43.02,-13.07 50.91,-14.4 30.57,-17.19 73.32,-5.1 8.83,2.5 21.01,7.04 29.63,7.76 -3.25,4.43 -5.08,3.51 -11.67,5.33l-122.01 36.09c-16.2,4.89 -33.73,-0.33 -46.45,-0.68l-51.05 -3.35zm-54.39 10.2c-12.43,1.03 -32.15,10.9 -44.19,11.9l0 3.4c8.85,0.2 265.36,79.56 272.18,81.53 9.55,2.76 23.73,-3.68 33.56,-6.96l99.86 -32.72c22.88,-7.69 43.39,-14.46 66.29,-22.1l66.93 -23.15c-13.28,-1.11 -180.75,-58.83 -198.8,-61.27 -9.27,-1.25 -55.52,-20.32 -68.06,-20.32 -14.24,0 -174.96,58.17 -202.24,57.82 -13.8,-0.18 -25.23,-1.62 -25.53,11.87z"/>
   <path class="fil0" d="M277.06 185.27l-188.67 -56.09 0 83.29c63.97,33.85 126.4,51.41 202.28,46.4 3.97,-0.26 1.96,0.03 4.78,-0.04 40.61,-0.98 80.93,-12.66 117.86,-27.39 13.69,-5.46 25.01,-12.54 37.13,-18.96l0 -84.99c-13.65,3.18 -29.48,9.55 -43.55,14.24 -19.82,6.61 -124.47,43.55 -129.82,43.55z"/>
   <path class="fil0" d="M304.26 397.74l-1.7 -101.98 -20.4 0 0 209.07c6.03,-0.13 15.12,-2.17 20.4,-3.4l10.2 -103.69 0 101.99c6.47,-3.1 20.4,-3.35 20.4,-10.2l0 -197.17c-34.12,0 -17.28,0.28 -26.72,73.56 -1.34,10.38 -2.17,21.44 -2.17,31.82z"/>
   <path class="fil0" d="M367.15 453.84l-0.06 -52.75c-0.13,-9 -1.69,-11.47 3.46,-15.24 2.86,1.99 3.4,0.24 3.4,5.1l0 52.69c0,6.44 -1.43,8.91 -6.8,10.2zm0 -88.39l0 -61.19c4.8,0.4 6.8,-0.04 6.8,5.1l0 45.89c0,6.44 -1.43,8.91 -6.8,10.2zm-20.4 -76.49l0 197.17c7.93,-1.85 25,-12.76 31.62,-17.67 22.13,-16.44 15.97,-53.99 15.97,-89.41 0,-10.03 -3.59,-10.2 -13.6,-10.2 5.81,-8.68 13.6,-10.76 13.6,-27.2 0,-12.64 3.94,-62.89 -8.5,-62.89 -4.31,0 -35.91,8.67 -39.09,10.2z"/>
   <path class="fil0" d="M178.48 475.93l0 -84.99c6.02,6.93 2.45,10.32 3.65,21.84 1.95,18.78 6.55,52.06 6.55,69.94 8.27,1.93 12.13,6.57 20.4,8.5 0,-27.8 -6.42,-55.46 -8.45,-79.93 -3.09,-37.16 -5.72,-7.98 -0.53,-49.73l5.28 -45.72c1.46,-9.86 2,-13.87 2,-25.19 -9.74,0 -12.16,-2.71 -20.4,-3.4 0,14.13 -5.19,48.58 -5.11,61.18 0.02,3.01 0.25,7.21 -0.1,10.1 -1.01,8.19 -3.2,8.5 -3.28,8.62l0 -81.59c-4.74,-2.28 -14.73,-5.48 -20.4,-6.8l-0.01 163.18c-0.09,18.2 -4.03,17.63 20.4,33.99z"/>
   <path class="fil0" d="M220.97 312.76l0 159.78c0,27.6 14.07,30.6 37.4,30.6 14.9,0 10.2,-55.81 10.2,-71.39l-20.4 0 0 42.49c0,4.79 -0.74,3.15 -3.4,5.1 -2.86,-1.99 -3.4,-0.24 -3.4,-5.1l0 -149.58c0,-4.79 0.74,-3.15 3.4,-5.1 2.86,1.99 3.4,0.24 3.4,5.1l0 39.09 20.4 0c0,-63.86 4.67,-67.99 -35.7,-67.99 -6.02,0 -11.9,10.55 -11.9,17z"/>
   <path class="fil0" d="M112.18 372.25c0,6.28 -1,5.75 -5.1,8.5l-8.5 -17c0,19 17.4,53.48 27.2,56.09 7.19,-4.81 7.67,-19.03 9.07,-32.49l13.02 -111.99c-4.57,-2.19 -17.16,-7.35 -22.1,-8.5 0,13.49 0.26,26.92 -1.24,37.86 -2.15,15.72 2.75,27.42 -3.86,36.93 0,-28.82 -5.1,-51.11 -5.1,-79.89l-21.81 -10.79c-0.29,11.59 2.8,21.06 4.35,29.94l14.06 91.33z"/>
   <path class="fil0" d="M404.54 270.26l0 18.7c6.49,-1.51 7.11,-3.59 13.6,-5.1l0 141.08c6.06,-4.06 13.39,-19.89 17.07,-27.12 5.38,-10.58 3.33,-24.37 3.33,-40.87 0,-29.46 0,-58.92 0,-88.39 12.61,-3.37 11.9,-12.54 11.9,-18.7 -6.6,1.54 -37.61,18.47 -45.89,20.4z"/>
   <path class="fil0" d="M52.69 373.95c-19.39,0 -15.3,3.72 -15.3,-32.3l-1.7 0c0,10.97 -3.18,19.17 -3.4,28.9 -3.91,-2.62 -7.17,-6.58 -8.61,-11.82 -2.24,-8.13 7.72,-40.29 8.61,-51.07l20.4 0c3.14,13.5 10.2,37.78 10.2,50.99 0,4.55 -2.45,5.03 -5.1,6.8 -1.84,-3.83 -6.8,-34.33 -6.8,-40.79l-1.7 0c0,17.58 3.4,30.43 3.4,49.29zm-17 -74.79c18.83,0 15.3,-1.23 18.7,3.4 -4.98,2.8 -10.03,1.7 -18.7,1.7 -6.5,0 -0.62,0.52 -5.1,-1.7 1.99,-2.87 0.24,-3.4 5.1,-3.4zm-6.8 -11.9c0,-18.65 33.34,-25.16 25.5,8.5 -11.56,0 -25.5,3.5 -25.5,-8.5zm13.6 -39.09l1.7 0 0 8.5 -1.7 0 0 -8.5zm0 -15.3l1.7 0 0 8.5 -1.7 0 0 -8.5zm1.7 -13.6c0,0.95 0.03,2.77 -0.11,3.28 -0.87,3.01 -0.55,1.89 -1.59,3.51l1.7 -6.8zm-1.7 -15.3l1.7 0 0 8.5 -1.7 0 0 -8.5zm0 -15.3l1.7 0 0 8.5 -1.7 0 0 -8.5zm1.7 -15.3c0,0.95 0.03,2.77 -0.11,3.29 -0.87,3.01 -0.55,1.89 -1.59,3.51l1.7 -6.8zm0 -15.3c0,0.95 0.03,2.77 -0.11,3.28 -0.87,3.01 -0.55,1.89 -1.59,3.51 0,-0.95 -0.03,-2.77 0.11,-3.29 0.94,-3.25 0.24,-1.66 1.59,-3.51zm0 -15.3l0 0zm0 -15.3l0 0zm-6.8 142.78c-19.86,5.3 -8.5,25.5 -8.5,37.39 0,7.34 -10.2,38.08 -10.2,47.59 0,26.22 47.59,33.14 47.59,-1.7 0,-20.29 -12.87,-36.83 -8.68,-56.76 1.48,-7.05 1.88,3.43 1.88,-12.93 0,-8.78 -4.5,-10.58 -10.2,-13.6l0 -152.98 -5.64 -0.09c-3.22,-0.67 1.77,1.08 -2.02,-0.92 -3.95,-2.08 2.45,-0.6 -4.24,-2.39l0 156.38z"/>
   <path class="fil0" d="M271.96 176.77l0 -6.8 -271.96 -81.59c0.06,2.63 0.01,4.11 0,4.97l0 0.42c0.02,1.44 0.39,0.12 2.81,2l269.15 81z"/>
   <path class="fil0" d="M278.76 169.98l0 6.8c6.16,-0.14 28.49,-7.3 34.51,-9.68 38.21,-15.09 122.56,-41.8 165,-55.97l25 -7.3c4.52,-2.12 0.44,-1.42 7.96,-3.94l24.16 -8.13c7.46,-3.6 4.28,0.97 5.13,-6.77 -10.16,5.38 -19.15,7.22 -31.26,11.24l-130.44 42.94c-11.43,3.82 -21.93,6.95 -33.57,10.62 -10.39,3.27 -20.65,6.88 -31.86,10.63 -7.78,2.61 -26.94,9.38 -34.64,9.56z"/>
   <path class="fil0" d="M231.17 73.09c19.16,0 63,-10.8 74.79,6.8 -9.63,14.39 -60.42,12.58 -67.6,2.95l-1.61 -3.8c-1.29,-4.5 -4.02,-4.89 -14.07,-2.55 0,9.98 1.44,10.17 9.11,12.99 15.12,5.57 83.71,10.33 89.48,-11.29 -10.63,-15.88 -75.75,-15.06 -90.09,-5.1z"/>
  </g>
 </g>
</svg>
